HIERARCHY
ROOT Hips
{
	OFFSET 0.000000 0.000000 0.000000 
	CHANNELS 6 Xposition Yposition Zposition Zrotation Yrotation Xrotation
	JOINT LeftUpLeg
	{
		OFFSET 1.363060 -1.794630 0.839290 
		CHANNELS 3 Zrotation Yrotation Xrotation
		JOINT LeftLeg
		{
			OFFSET 2.448110 -6.726130 0.000000 
			CHANNELS 3 Zrotation Yrotation Xrotation
			JOINT LeftFoot
			{
				OFFSET 2.562200 -7.039590 0.000000 
				CHANNELS 3 Zrotation Yrotation Xrotation
				JOINT LeftToeBase
				{
					OFFSET 0.157640 -0.433110 2.322550 
					CHANNELS 3 Zrotation Yrotation Xrotation
					End Site
					{
						OFFSET 0.000000 0.000000 0.000000 
					}
				}
			}
		}
	}
	JOINT RightUpLeg
	{
		OFFSET -1.305520 -1.794630 0.839290 
		CHANNELS 3 Zrotation Yrotation Xrotation
		JOINT RightLeg
		{
			OFFSET -2.542530 -6.985550 0.000000 
			CHANNELS 3 Zrotation Yrotation Xrotation
			JOINT RightFoot
			{
				OFFSET -2.568260 -7.056230 0.000000 
				CHANNELS 3 Zrotation Yrotation Xrotation
				JOINT RightToeBase
				{
					OFFSET -0.164730 -0.452590 2.363150 
					CHANNELS 3 Zrotation Yrotation Xrotation
					End Site
					{
						OFFSET 0.000000 0.000000 0.000000 
					}
				}
			}
		}
	}
	JOINT Spine
	{
		OFFSET 0.028270 2.035590 -0.193380 
		CHANNELS 3 Zrotation Yrotation Xrotation
		JOINT Spine1
		{
			OFFSET 0.056720 2.048850 -0.042750 
			CHANNELS 3 Zrotation Yrotation Xrotation
			JOINT Neck1
			{
				OFFSET -0.054170 1.746240 0.172020 
				CHANNELS 3 Zrotation Yrotation Xrotation
				JOINT Head
				{
					OFFSET 0.104070 1.761360 -0.123970 
					CHANNELS 3 Zrotation Yrotation Xrotation
					End Site
					{
						OFFSET 0.000000 0.000000 0.000000 
					}
				}
			}
			JOINT LeftArm
			{
				OFFSET 3.362410 1.200890 -0.311210 
				CHANNELS 3 Zrotation Yrotation Xrotation
				JOINT LeftForeArm
				{
					OFFSET 4.983000 -0.000000 -0.000000 
					CHANNELS 3 Zrotation Yrotation Xrotation
					JOINT LeftHand
					{
						OFFSET 3.483560 -0.000000 -0.000000 
						CHANNELS 3 Zrotation Yrotation Xrotation
						JOINT LeftHandIndex1
						{
							OFFSET 0.715260 -0.000000 -0.000000 
							CHANNELS 3 Zrotation Yrotation Xrotation
							End Site
							{
								OFFSET 0.000000 0.000000 0.000000 
							}
						}
					}
				}
			}
			JOINT RightArm
			{
				OFFSET -3.136600 1.374050 -0.404650 
				CHANNELS 3 Zrotation Yrotation Xrotation
				JOINT RightForeArm
				{
					OFFSET -5.241900 -0.000000 -0.000000 
					CHANNELS 3 Zrotation Yrotation Xrotation
					JOINT RightHand
					{
						OFFSET -3.444170 -0.000000 -0.000000 
						CHANNELS 3 Zrotation Yrotation Xrotation
						JOINT RightHandIndex1
						{
							OFFSET -0.622530 -0.000000 -0.000000 
							CHANNELS 3 Zrotation Yrotation Xrotation
							End Site
							{
								OFFSET 0.000000 0.000000 0.000000 
							}
						}
					}
				}
			}
		}
	}
}
MOTION
Frames: 12
Frame Time: 0.041667
10.207731 16.989940 -1.441106 -1.946465 -34.607359 16.251961 -6.397019 0.177014 -52.749881 26.920457 19.064102 110.118510 1.955180 -7.086066 -2.364768 1.453700 -7.620900 -21.568400 21.870194 4.344469 -47.037580 -6.232220 -15.716140 48.828984 1.097767 -6.261066 -8.273556 -0.007500 0.558500 -1.534800 1.798373 -2.206867 0.068488 -9.178498 -0.428106 6.903837 -1.342865 -1.891417 -2.370267 -0.021200 -0.627700 -3.723600 -71.735076 -44.074259 49.580441 74.664330 -58.320226 -49.107038 -0.405829 -0.848703 -55.732418 -7.125000 0.000000 0.000000 85.001795 3.646301 43.622157 -52.545921 54.300707 -28.313679 0.402557 -0.617609 4.027015 7.125000 0.000000 0.000000 
10.192680 16.924684 -1.432686 -2.058903 -34.787825 16.021556 -5.942386 0.173946 -54.999352 27.426156 18.937396 111.697261 2.006839 -7.433076 -2.449705 1.443200 -7.594700 -21.489700 22.141966 4.358045 -47.167085 -6.516782 -15.912169 49.774171 0.971043 -6.012356 -8.972954 -0.014200 0.768800 -2.112900 1.788757 -2.057308 0.134630 -9.163496 -0.369701 6.843020 -1.245481 -2.014549 -2.689687 0.034700 -0.684300 -3.885700 -71.039096 -44.932619 48.827224 75.466786 -58.315356 -49.865814 -0.394401 -0.857754 -55.759776 -7.125000 0.000000 0.000000 84.712044 4.096932 43.389437 -52.571366 54.258363 -28.368632 0.401097 -0.612510 4.007650 7.125000 0.000000 0.000000 
10.177734 16.859323 -1.422687 -2.182601 -34.974553 15.798856 -5.505853 0.116532 -57.224518 27.845435 18.829053 113.006732 2.041500 -7.684571 -2.520552 1.427300 -7.554500 -21.368800 22.410862 4.381236 -47.281197 -6.802873 -16.103392 50.715180 0.845982 -5.777750 -9.670934 -0.023200 0.982400 -2.700300 1.777128 -1.914876 0.200017 -9.169257 -0.311861 6.789025 -1.162350 -2.129440 -2.998714 0.082800 -0.737000 -4.041600 -70.306584 -45.774454 48.026136 76.220146 -58.300275 -50.588262 -0.382030 -0.867237 -55.770907 -7.125000 0.000000 0.000000 84.469758 4.529761 43.110592 -52.614258 54.224061 -28.438131 0.399856 -0.608631 3.988741 7.125000 0.000000 0.000000 
10.162789 16.793962 -1.410689 -2.327293 -35.162697 15.588839 -5.080075 -0.001556 -59.408452 28.179334 18.744908 114.044231 2.059045 -7.831891 -2.583211 1.405600 -7.499100 -21.202800 22.686673 4.408127 -47.381843 -7.089396 -16.289062 51.649082 0.725428 -5.563253 -10.358193 -0.034200 1.193500 -3.281300 1.766458 -1.789936 0.264204 -9.183249 -0.260444 6.740847 -1.095806 -2.227484 -3.296736 0.125400 -0.780900 -4.192100 -69.536273 -46.587177 47.155550 76.912653 -58.275203 -51.266335 -0.368862 -0.876905 -55.759562 -7.125000 0.000000 0.000000 84.258415 4.944369 42.812283 -52.682400 54.200490 -28.527930 0.399200 -0.605566 3.970336 7.125000 0.000000 0.000000 
10.148053 16.728706 -1.396585 -2.489965 -35.353132 15.391905 -4.668857 -0.187347 -61.541313 28.429271 18.689351 114.810342 2.059001 -7.868180 -2.641129 1.378800 -7.430300 -20.996700 22.966895 4.438807 -47.472040 -7.375581 -16.468494 52.573810 0.611504 -5.373562 -11.026725 -0.046900 1.397300 -3.842700 1.757659 -1.684350 0.327182 -9.197680 -0.217470 6.699301 -1.046608 -2.307824 -3.584258 0.163100 -0.815000 -4.338600 -68.737179 -47.357831 46.218192 77.541917 -58.242130 -51.897214 -0.354971 -0.886581 -55.717622 -7.125000 0.000000 0.000000 84.070661 5.334901 42.508404 -52.782645 54.190316 -28.643303 0.399617 -0.603026 3.951361 7.125000 0.000000 0.000000 
10.133318 16.663871 -1.380587 -2.671103 -35.523272 15.209741 -4.273693 -0.459266 -63.599342 28.595249 18.663068 115.303747 2.042359 -7.798265 -2.692911 1.343800 -7.339400 -20.724800 23.246636 4.462783 -47.558516 -7.660036 -16.644758 53.487039 0.505409 -5.210285 -11.671476 -0.060600 1.589000 -4.371200 1.699322 -1.603505 0.409273 -9.148946 -0.195130 6.405765 -1.003086 -2.377716 -3.897670 0.194200 -0.845300 -4.482800 -67.872260 -48.097621 45.219715 78.103484 -58.171949 -52.470679 -0.341723 -0.897020 -55.651586 -7.125000 0.000000 0.000000 83.936557 5.712357 42.161744 -52.917247 54.175839 -28.781253 0.399875 -0.602776 3.944925 7.125000 0.000000 0.000000 
10.118372 16.599667 -1.362483 -2.847997 -35.711870 15.017228 -3.903755 -0.804053 -65.563684 28.678073 18.673094 115.521593 2.009930 -7.626411 -2.746472 1.305900 -7.239100 -20.425800 23.516852 4.488870 -47.622324 -7.943803 -16.811826 54.388916 0.406213 -5.067883 -12.288093 -0.074700 1.763700 -4.853200 1.688830 -1.528533 0.467668 -9.168671 -0.165135 6.365252 -0.980997 -2.442258 -4.170042 0.221800 -0.870500 -4.625800 -67.027048 -48.799008 44.208189 78.593021 -58.123976 -52.987528 -0.327318 -0.908053 -55.579615 -7.125000 0.000000 0.000000 83.817742 6.044667 41.827753 -53.077585 54.190310 -28.942984 0.400111 -0.601723 3.943795 7.125000 0.000000 0.000000 
10.102900 16.536832 -1.342591 -3.016642 -35.909864 14.813971 -3.563493 -1.225638 -67.404731 28.675922 18.719236 115.458387 1.964624 -7.369949 -2.806296 1.272800 -7.150300 -20.161400 23.768689 4.514641 -47.663191 -8.225563 -16.971757 55.277095 0.312609 -4.942861 -12.878682 -0.088700 1.920900 -5.287000 1.679355 -1.464827 0.524877 -9.174926 -0.142862 6.326149 -0.966229 -2.498734 -4.434668 0.248600 -0.890900 -4.767400 -66.159829 -49.460292 43.161173 79.011519 -58.070139 -53.445509 -0.313039 -0.920171 -55.517573 -7.125000 0.000000 0.000000 83.721172 6.347595 41.495960 -53.262140 54.214656 -29.123127 0.400132 -0.600897 3.949453 7.125000 0.000000 0.000000 
10.086481 16.475260 -1.321225 -3.170931 -36.116676 14.595827 -3.249621 -1.716345 -69.107472 28.589388 18.801524 115.115975 1.910330 -7.057782 -2.861320 1.245000 -7.074800 -19.937200 23.997188 4.541997 -47.679069 -8.504470 -17.124687 56.150033 0.224373 -4.834533 -13.447555 -0.102300 2.062800 -5.679300 1.669121 -1.411558 0.581162 -9.174035 -0.126994 6.289687 -0.952758 -2.550034 -4.690282 0.276200 -0.908200 -4.904700 -65.255155 -50.087104 42.078379 79.363146 -58.011129 -53.847163 -0.298759 -0.934098 -55.484200 -7.125000 0.000000 0.000000 83.650718 6.622460 41.168366 -53.471540 54.249345 -29.321591 0.399852 -0.600549 3.957091 7.125000 0.000000 0.000000 
10.069115 16.415371 -1.298596 -3.310608 -36.334593 14.362209 -2.957987 -2.263851 -70.655216 28.418599 18.918692 114.495985 1.849858 -6.707521 -2.914575 1.226300 -7.023400 -19.784800 24.202124 4.573953 -47.666033 -8.779844 -17.269911 57.006107 0.139014 -4.736620 -14.000709 -0.115500 2.191200 -6.034300 1.657548 -1.361042 0.636126 -9.168199 -0.116223 6.255258 -0.917211 -2.616338 -5.239110 0.271700 -0.929900 -4.633500 -64.324512 -50.685638 40.985691 79.654395 -57.946730 -54.195149 -0.284914 -0.949529 -55.489658 -7.125000 0.000000 0.000000 83.612063 6.866891 40.833933 -53.706166 54.293660 -29.539518 0.399392 -0.600491 3.964965 7.125000 0.000000 0.000000 
10.050696 16.357167 -1.274809 -3.429087 -36.559546 14.114447 -2.689918 -2.861981 -72.041168 28.163160 19.068178 113.601226 1.784629 -6.330186 -2.964876 1.219400 -7.004300 -19.728200 24.378292 4.610655 -47.627702 -9.050985 -17.407636 57.843293 0.054792 -4.643721 -14.540337 -0.127900 2.305500 -6.350700 1.645050 -1.313493 0.690314 -9.154194 -0.106881 6.222943 -0.897554 -2.662839 -5.496384 0.294500 -0.945900 -4.745300 -63.369759 -51.257127 39.880268 79.885601 -57.879675 -54.489842 -0.271476 -0.966429 -55.531519 -7.125000 0.000000 0.000000 83.600555 7.079130 40.503827 -53.958822 54.346205 -29.770811 0.398952 -0.600726 3.974574 7.125000 0.000000 0.000000 
10.031224 16.300542 -1.250074 -3.535161 -36.784807 13.864440 -2.436452 -3.493699 -73.269343 27.824587 19.245545 112.440647 1.714943 -5.931481 -3.011340 1.218700 -7.002300 -19.722100 24.535529 4.651890 -47.573904 -9.316944 -17.537666 58.660177 -0.027147 -4.559338 -15.066760 -0.140200 2.413300 -6.649200 1.632105 -1.271242 0.741600 -9.134395 -0.101638 6.188320 -0.872058 -2.700977 -5.747183 0.317300 -0.958500 -4.853800 -62.396211 -51.796996 38.767379 80.060540 -57.809680 -54.734149 -0.258410 -0.984743 -55.600088 -7.125000 0.000000 0.000000 83.617314 7.257622 40.182726 -54.233414 54.407816 -30.017801 0.398505 -0.601284 3.981487 7.125000 0.000000 0.000000 
